<svg width="44" height="44" viewBox="0 0 44 44" fill="none" xmlns="http://www.w3.org/2000/svg">
<g filter="url(#filter0_di_18_551)">
<rect width="36" height="36" rx="8" transform="matrix(0 1 1 0 4 0)" fill="#F0F0F0"/>
<rect x="0.25" y="0.25" width="35.5" height="35.5" rx="7.75" transform="matrix(0 1 1 0 4 -8.9407e-08)" stroke="#1E1E1E" stroke-width="0.5"/>
</g>
<path d="M15.3049 8.53971C11.1091 7.79988 7.10803 10.6015 6.36821 14.7972C5.62838 18.993 8.42997 22.9941 12.6257 23.7339L19.2099 24.8948L21.889 9.70067L15.3049 8.53971Z" fill="#1E1E1E"/>
<path d="M32.7194 23.2415C36.6432 22.5496 39.2632 18.8079 38.5713 14.8841C37.8795 10.9602 34.1377 8.34024 30.2139 9.03212L24.1222 10.1063L26.6277 24.3156L32.7194 23.2415Z" fill="#F0F0F0" stroke="#1E1E1E"/>
<circle cx="23.0286" cy="23.143" r="0.514286" fill="#1E1E1E"/>
<circle cx="22.0001" cy="22.1144" r="0.514286" fill="#1E1E1E"/>
<circle cx="20.9715" cy="21.0858" r="0.514286" fill="#1E1E1E"/>
<circle cx="23.0286" cy="21.0857" r="0.514286" fill="#1E1E1E"/>
<circle cx="19.9429" cy="23.1429" r="0.514286" fill="#1E1E1E"/>
<circle cx="25.0857" cy="22.1143" r="0.514286" fill="#1E1E1E"/>
<circle cx="25.0857" cy="20.0571" r="0.514286" fill="#1E1E1E"/>
<circle cx="25.0857" cy="18" r="0.514286" fill="#1E1E1E"/>
<circle cx="22" cy="20.0571" r="0.514286" fill="#1E1E1E"/>
<circle cx="19.9429" cy="20.0573" r="0.514286" fill="#1E1E1E"/>
<circle cx="20.9715" cy="19.0287" r="0.514286" fill="#1E1E1E"/>
<circle cx="20.9715" cy="18.0001" r="0.514286" fill="#1E1E1E"/>
<circle cx="20.9715" cy="16.9716" r="0.514286" fill="#1E1E1E"/>
<circle cx="20.9715" cy="14.9144" r="0.514286" fill="#1E1E1E"/>
<circle cx="20.9715" cy="15.943" r="0.514286" fill="#1E1E1E"/>
<circle cx="22.0001" cy="13.8858" r="0.514286" fill="#1E1E1E"/>
<circle cx="24.0571" cy="16.9714" r="0.514286" fill="#1E1E1E"/>
<circle cx="24.0571" cy="14.9143" r="0.514286" fill="#1E1E1E"/>
<circle cx="22" cy="18" r="0.514286" fill="#1E1E1E"/>
<circle cx="24.0571" cy="19.0286" r="0.514286" fill="#1E1E1E"/>
<circle cx="22" cy="12.8572" r="0.514286" fill="#1E1E1E"/>
<circle cx="22" cy="14.9144" r="0.514286" fill="#1E1E1E"/>
<circle cx="22" cy="15.943" r="0.514286" fill="#1E1E1E"/>
<circle cx="23.0286" cy="13.8858" r="0.514286" fill="#1E1E1E"/>
<circle cx="23.0285" cy="12.8572" r="0.514286" fill="#1E1E1E"/>
<circle cx="23.0286" cy="16.9716" r="0.514286" fill="#1E1E1E"/>
<circle cx="23.0286" cy="15.943" r="0.514286" fill="#1E1E1E"/>
<circle cx="24.0571" cy="13.8858" r="0.514286" fill="#1E1E1E"/>
<circle cx="24.0571" cy="12.8572" r="0.514286" fill="#1E1E1E"/>
<circle cx="20.9714" cy="12.8572" r="0.514286" fill="#1E1E1E"/>
<circle cx="20.9714" cy="24.1714" r="0.514286" fill="#1E1E1E"/>
<circle cx="23.0286" cy="25.2" r="0.514286" fill="#1E1E1E"/>
<circle cx="19.9429" cy="26.2285" r="0.514286" fill="#1E1E1E"/>
<circle cx="25.0857" cy="24.1714" r="0.514286" fill="#1E1E1E"/>
<circle cx="26.1143" cy="26.2285" r="0.514286" fill="#1E1E1E"/>
<circle cx="22" cy="28.2857" r="0.514286" fill="#1E1E1E"/>
<circle cx="24.0571" cy="26.2285" r="0.514286" fill="#1E1E1E"/>
<circle cx="24.0571" cy="23.1429" r="0.514286" fill="#1E1E1E"/>
<circle cx="24.0571" cy="20.0571" r="0.514286" fill="#1E1E1E"/>
<circle cx="19.9429" cy="25.2" r="0.514286" fill="#1E1E1E"/>
<defs>
<filter id="filter0_di_18_551" x="0" y="0" width="44" height="44" filterUnits="userSpaceOnUse" color-interpolation-filters="sRGB">
<feFlood flood-opacity="0" result="BackgroundImageFix"/>
<feColorMatrix in="SourceAlpha" type="matrix" values="0 0 0 0 0 0 0 0 0 0 0 0 0 0 0 0 0 0 127 0" result="hardAlpha"/>
<feOffset dy="4"/>
<feGaussianBlur stdDeviation="2"/>
<feComposite in2="hardAlpha" operator="out"/>
<feColorMatrix type="matrix" values="0 0 0 0 0 0 0 0 0 0 0 0 0 0 0 0 0 0 0.25 0"/>
<feBlend mode="normal" in2="BackgroundImageFix" result="effect1_dropShadow_18_551"/>
<feBlend mode="normal" in="SourceGraphic" in2="effect1_dropShadow_18_551" result="shape"/>
<feColorMatrix in="SourceAlpha" type="matrix" values="0 0 0 0 0 0 0 0 0 0 0 0 0 0 0 0 0 0 127 0" result="hardAlpha"/>
<feOffset dx="4" dy="4"/>
<feGaussianBlur stdDeviation="5"/>
<feComposite in2="hardAlpha" operator="arithmetic" k2="-1" k3="1"/>
<feColorMatrix type="matrix" values="0 0 0 0 0 0 0 0 0 0 0 0 0 0 0 0 0 0 0.25 0"/>
<feBlend mode="normal" in2="shape" result="effect2_innerShadow_18_551"/>
</filter>
</defs>
</svg>
